<svg id="Capa_1" enable-background="new 0 0 510.021 510.021" height="512" viewBox="0 0 510.021 510.021" width="512" xmlns="http://www.w3.org/2000/svg"><g><circle cx="255.01" cy="256.78" fill="#fdb441" r="194.786"/><circle cx="255.01" cy="256.78" fill="#fedf30" r="154.787"/><path d="m171.088 253.411c0-64.856 35.478-121.42 88.082-151.361-1.382-.036-2.768-.057-4.159-.057-85.486 0-154.787 69.3-154.787 154.787s69.3 154.787 154.787 154.787c5.301 0 10.541-.268 15.705-.789-58.893-27.899-99.628-87.872-99.628-157.367z" fill="#fed402"/><g><path d="m255.01 43.649c-4.143 0-7.5-3.358-7.5-7.5v-28.536c0-4.142 3.357-7.5 7.5-7.5s7.5 3.358 7.5 7.5v28.536c0 4.142-3.357 7.5-7.5 7.5z" fill="#fec165"/></g><g><path d="m29.569 264.28h-21.726c-4.143 0-7.5-3.358-7.5-7.5s3.357-7.5 7.5-7.5h21.726c4.143 0 7.5 3.358 7.5 7.5s-3.357 7.5-7.5 7.5z" fill="#fedba6"/></g><g><path d="m502.177 264.28h-21.726c-4.143 0-7.5-3.358-7.5-7.5s3.357-7.5 7.5-7.5h21.726c4.143 0 7.5 3.358 7.5 7.5s-3.357 7.5-7.5 7.5z" fill="#fedba6"/></g><g><path d="m164.891 62.845c-2.867 0-5.604-1.653-6.85-4.439l-11.635-26.005c-1.692-3.781.002-8.217 3.783-9.909 3.779-1.689 8.218.003 9.908 3.783l11.635 26.005c1.692 3.781-.002 8.217-3.783 9.909-.993.445-2.034.656-3.058.656z" fill="#fedba6"/></g><g><path d="m48.942 167.942c-1.063 0-2.145-.228-3.172-.708l-19.653-9.188c-3.752-1.754-5.372-6.218-3.617-9.97 1.753-3.753 6.219-5.373 9.971-3.618l19.653 9.188c3.752 1.754 5.372 6.218 3.617 9.97-1.273 2.726-3.978 4.326-6.799 4.326z" fill="#fedba6"/></g><g><path d="m94.899 102.758c-1.931 0-3.86-.741-5.326-2.22l-86.99-87.758c-2.916-2.941-2.896-7.69.046-10.606s7.691-2.895 10.606.047l86.99 87.757c2.916 2.941 2.896 7.69-.046 10.606-1.462 1.449-3.372 2.174-5.28 2.174z" fill="#fec165"/></g><g><path d="m345.13 62.845c-1.024 0-2.064-.211-3.059-.656-3.781-1.692-5.476-6.128-3.783-9.909l11.635-26.005c1.691-3.782 6.133-5.473 9.908-3.783 3.781 1.692 5.476 6.128 3.783 9.909l-11.635 26.005c-1.246 2.787-3.983 4.439-6.849 4.439z" fill="#fedba6"/></g><g><path d="m461.079 167.942c-2.822 0-5.525-1.601-6.799-4.326-1.755-3.752-.135-8.216 3.617-9.97l19.653-9.188c3.753-1.757 8.217-.135 9.971 3.618 1.755 3.752.135 8.216-3.617 9.97l-19.653 9.188c-1.028.481-2.109.708-3.172.708z" fill="#fedba6"/></g><g><path d="m415.122 102.758c-1.908 0-3.817-.724-5.28-2.173-2.941-2.916-2.962-7.665-.046-10.606l86.99-87.757c2.914-2.942 7.663-2.963 10.606-.047 2.941 2.916 2.962 7.665.046 10.606l-86.99 87.757c-1.466 1.479-3.396 2.22-5.326 2.22z" fill="#fec165"/></g><g><path d="m255.01 510.021c-4.143 0-7.5-3.358-7.5-7.5v-28.536c0-4.142 3.357-7.5 7.5-7.5s7.5 3.358 7.5 7.5v28.536c0 4.142-3.357 7.5-7.5 7.5z" fill="#fec165"/></g><g><path d="m153.249 491.723c-1.024 0-2.064-.211-3.059-.656-3.781-1.692-5.476-6.128-3.783-9.909l11.635-26.005c1.691-3.782 6.133-5.472 9.908-3.783 3.781 1.692 5.476 6.128 3.783 9.909l-11.635 26.005c-1.246 2.786-3.983 4.439-6.849 4.439z" fill="#fedba6"/></g><g><path d="m29.299 369.81c-2.822 0-5.525-1.601-6.799-4.326-1.755-3.752-.135-8.216 3.617-9.97l19.653-9.188c3.753-1.756 8.217-.135 9.971 3.618 1.755 3.752.135 8.216-3.617 9.97l-19.653 9.188c-1.028.481-2.109.708-3.172.708z" fill="#fedba6"/></g><g><path d="m7.909 509.774c-1.908 0-3.817-.724-5.28-2.173-2.941-2.916-2.962-7.665-.046-10.606l86.99-87.757c2.915-2.942 7.664-2.963 10.606-.047 2.941 2.916 2.962 7.665.046 10.606l-86.99 87.757c-1.466 1.479-3.395 2.22-5.326 2.22z" fill="#fec165"/></g><g><path d="m356.772 491.723c-2.867 0-5.604-1.653-6.85-4.439l-11.635-26.005c-1.692-3.781.002-8.217 3.783-9.909 3.781-1.691 8.218.003 9.908 3.783l11.635 26.005c1.692 3.781-.002 8.217-3.783 9.909-.993.445-2.034.656-3.058.656z" fill="#fedba6"/></g><g><path d="m500.119 509.389c-1.931 0-3.86-.741-5.326-2.22l-86.99-87.757c-2.916-2.941-2.896-7.69.046-10.606 2.943-2.916 7.691-2.895 10.606.047l86.99 87.757c2.916 2.941 2.896 7.69-.046 10.606-1.462 1.449-3.372 2.173-5.28 2.173z" fill="#fec165"/></g></g></svg>