<svg id="Capa_1" enable-background="new 0 0 496.89 496.89" height="512" viewBox="0 0 496.89 496.89" width="512" xmlns="http://www.w3.org/2000/svg"><g><path d="m139.222 295.868-51.135-50.077v-35.712c0-4.34-3.518-7.858-7.858-7.858h-14.284c-4.34 0-7.858 3.518-7.858 7.858v27.018h-22.301c-4.34 0-7.858 3.518-7.858 7.858v14.283c0 4.34 3.518 7.858 7.858 7.858h31.179l70.971 69.503 46.439 55.981 15.631-23.61z" fill="#e19974"/><path d="m358.953 337.599 70.971-69.503h31.179c4.34 0 7.858-3.518 7.858-7.858v-14.283c0-4.34-3.518-7.858-7.858-7.858h-22.301v-27.018c0-4.34-3.518-7.858-7.858-7.858h-14.283c-4.34 0-7.858 3.518-7.858 7.858v35.712l-51.135 50.077-48.367 40.731 18.828 22.765z" fill="#e19974"/><g id="XMLID_4_"><path d="m344.805 312.25-16.97-30.56h-145.46l-26.34 33.43c-12.93 18.7-20.51 41.39-20.51 65.85 0 27.61 9.66 52.97 25.77 72.88l29.974 23.758h124.961l25.365-23.758c16.11-19.91 25.77-45.27 25.77-72.88 0-25.72-8.38-49.49-22.56-68.72z" fill="#f7f2f0"/></g><path d="m179.423 380.97c0-24.46 7.58-47.15 20.51-65.85l26.34-33.43h-43.898l-26.34 33.43c-12.93 18.7-20.51 41.39-20.51 65.85 0 27.61 9.66 52.97 25.77 72.88l29.974 23.758h43.898l-29.974-23.758c-16.11-19.91-25.77-45.27-25.77-72.88z" fill="#f1e9e6"/><path d="m376.665 132-62.588-40.733-84.978-6.777-62.354 15.892-40.5 31.528c-3.16 11.23-4.86 23.08-4.86 35.33 0 33.59 12.74 64.2 33.65 87.28l31.093 19.482h146.914l14.813-19.482c20.9-23.08 33.65-53.69 33.65-87.28 0-12.22-1.68-24.03-4.84-35.24z" fill="#f7f2f0"/><path d="m236.543 386.738c-3.186 0-5.769-2.583-5.769-5.769v-110.466h46.521v116.235z" fill="#d8f0f4"/><path d="m314.077 418.463c0 3.186-2.583 5.769-5.769 5.769h-37.095c-3.186 0-5.769-2.583-5.769-5.769v-136.773h48.634v136.773z" fill="#b2e4ee"/><g id="XMLID_2_"><g><path d="m345.372 92.723 6.423-8.233-6.34-15.32c-13.68-33.09-42.08-57.86-76.73-66.94-5.68-1.49-11.51-2.23-17.34-2.23-5.82 0-11.65.74-17.33 2.23-17.33 4.54-33.09 13-46.23 24.47-13.14 11.46-23.66 25.92-30.5 42.47l-6.34 15.32 12.142 8.233z" fill="#85d6e4"/><path d="m170.404 167.24c0-12.25 1.7-24.1 4.86-35.33l.013-.01c3.884-13.827 10.015-26.719 17.957-38.269l-26.488 6.751-40.5 31.528c-3.16 11.23-4.86 23.08-4.86 35.33 0 33.59 12.74 64.2 33.65 87.28l31.093 19.482h49.019l-31.093-19.482c-20.911-23.08-33.651-53.69-33.651-87.28z" fill="#f1e9e6"/><path d="m235.993 26.7c11.412-9.962 24.803-17.649 39.48-22.474-2.221-.73-4.47-1.399-6.748-1.996-5.68-1.49-11.51-2.23-17.34-2.23-5.82 0-11.65.74-17.33 2.23-17.33 4.54-33.09 13-46.23 24.47-13.14 11.46-23.66 25.92-30.5 42.47l-6.34 15.32 12.142 8.233h30.138c15.022-27.349 34.634-58.963 42.728-66.023z" fill="#2ed1e2"/><path d="m351.795 84.49c11.35 13.75 19.93 29.87 24.87 47.51l-38.17-16.22c-29.05-12.34-58.33-18.59-87.05-18.59-28.73 0-58.06 6.26-87.19 18.61l-38 16.11c4.95-17.63 13.54-33.75 24.9-47.49 66.95-28.34 133.84-28.32 200.64.07z" fill="#b2e4ee"/><g><path d="m207.337 67.362c-18.915 3.479-37.836 9.22-56.761 17.231-11.36 13.74-19.95 29.86-24.9 47.49l38-16.11c6.948-2.946 13.907-5.534 20.867-7.784 6.331-12.335 14.606-27.155 22.794-40.827z" fill="#a6e7f0"/></g></g></g><circle cx="182.376" cy="171.689" fill="#c7bec6" r="15.631"/><circle cx="320.514" cy="171.689" fill="#c7bec6" r="15.631"/><path d="m367.365 475.37c0 5.95-2.41 11.33-6.3 15.22-3.9 3.89-9.28 6.3-15.22 6.3h-188.8c-11.89 0-21.52-9.63-21.52-21.52 0-5.95 2.41-11.33 6.3-15.22 3.9-3.89 9.28-6.3 15.22-6.3h4.25 180.3 4.25c11.89 0 21.52 9.63 21.52 21.52z" fill="#f1e9e6"/><path d="m328.656 317.29h-162.186c-17.333 0-31.385-14.052-31.385-31.385 0-17.333 14.052-31.385 31.385-31.385h162.186c17.333 0 31.385 14.052 31.385 31.385 0 17.333-14.051 31.385-31.385 31.385z" fill="#85d6e4"/><path d="m182.376 285.905c0-17.333 14.052-31.385 31.385-31.385h-47.291c-17.333 0-31.385 14.052-31.385 31.385 0 17.333 14.052 31.385 31.385 31.385h47.291c-17.333 0-31.385-14.052-31.385-31.385z" fill="#2ed1e2"/><path d="m242.771 265.133c-14.303-18.99-22.383-39.775-22.102-62.97.036-2.997 1.932-5.639 4.704-6.782 16.717-6.892 34.008-7.142 51.935-.014 2.885 1.147 4.842 3.904 4.81 7.009-.238 22.879-8.223 43.546-22.09 62.533-4.251 5.819-12.922 5.98-17.257.224z" fill="#f1a940"/></g></svg>