<svg id="Capa_1" enable-background="new 0 0 498.951 498.951" height="512" viewBox="0 0 498.951 498.951" width="512" xmlns="http://www.w3.org/2000/svg"><g><g id="XMLID_43_"><g><circle cx="240.235" cy="270.381" fill="#85d6e4" r="228.57"/></g></g><path d="m467.376 244.829c-12.708-114.202-109.55-203.018-227.14-203.018-6.32 0-12.577.268-18.767.771-20.707 26.897-32.25 59.504-32.879 93.799-.671 36.6 11.368 72.568 33.898 101.279 20.646 26.31 49.258 45.583 81.162 54.815l20.738 26.717c5.685 7.324 14.264 11.525 23.536 11.525s17.851-4.201 23.536-11.525l20.738-26.718c28.902-8.367 55.154-25.014 75.178-47.645z" fill="#2ed1e2"/><path d="m240.675 302.281h225.92c-4.85 34.73-17.51 66.97-36.15 94.87h-79.92c-5.81 0-11.06-2.35-14.87-6.16-3.8-3.8-6.16-9.06-6.16-14.87 0-5.3-4.3-9.61-9.61-9.61h-79.21c-8.87 0-16.9-3.6-22.71-9.41s-9.4-13.83-9.4-22.7c0-17.74 14.37-32.12 32.11-32.12z" fill="#c3e87d"/><path d="m311.261 302.281 13.127 16.911c5.685 7.324 14.264 11.525 23.536 11.525s17.851-4.201 23.536-11.525l13.126-16.911z" fill="#b1e254"/><path d="m487.286 139.362c0-77.303-62.94-139.906-140.371-139.358-75.245.533-136.95 61.509-138.329 136.744-1.226 66.884 44.68 123.25 106.722 138.129l24.88 32.052c3.921 5.051 11.552 5.051 15.473 0l24.88-32.052c61.23-14.686 106.745-69.781 106.745-135.515z" fill="#e3817f"/><circle cx="347.924" cy="139.362" fill="#f7f2f0" r="94.306"/><g><path d="m346.262 195.391h-2.985c-14.876 0-26.979-12.103-26.979-26.979v-36.262c0-14.876 12.103-26.979 26.979-26.979h2.985c14.876 0 26.979 12.103 26.979 26.979 0 4.142-3.358 7.5-7.5 7.5s-7.5-3.358-7.5-7.5c0-6.605-5.374-11.979-11.979-11.979h-2.985c-6.605 0-11.979 5.374-11.979 11.979v36.262c0 6.605 5.374 11.979 11.979 11.979h2.985c6.605 0 11.979-5.374 11.979-11.979 0-4.142 3.358-7.5 7.5-7.5s7.5 3.358 7.5 7.5c0 14.877-12.103 26.979-26.979 26.979z" fill="#b2e4ee"/></g><g><path d="m376.8 92.685c-4.142 0-7.5-3.358-7.5-7.5v-5.492c0-4.142 3.358-7.5 7.5-7.5s7.5 3.358 7.5 7.5v5.492c0 4.142-3.358 7.5-7.5 7.5z" fill="#b2e4ee"/></g><path d="m104.699 318.719h-28.467c-9.078 0-16.436-7.359-16.436-16.436 0-9.078 7.359-16.436 16.436-16.436h28.468c9.078 0 16.436 7.359 16.436 16.436 0 9.078-7.359 16.436-16.437 16.436z" fill="#c3e87d"/><g id="XMLID_151_"><g fill="#c3e87d"><path d="m178.935 411.671c10.82 0 19.58 8.77 19.58 19.59 0 5.41-2.19 10.3-5.73 13.84-3.55 3.55-8.44 5.74-13.85 5.74h-78.99c-14.66-11.41-27.89-24.57-39.39-39.17z"/><path d="m130.395 159.371c11.3 0 20.46 9.16 20.46 20.46 0 5.65-2.29 10.76-5.99 14.47-3.71 3.7-8.82 5.99-14.47 5.99h-10.61c0 5.44-2.21 10.37-5.78 13.94-3.57 3.56-8.49 5.77-13.94 5.77h-82.83c4.84-21.52 12.72-41.88 23.15-60.63z"/></g></g></g><g><g id="XMLID_5_"><g><circle cx="240.235" cy="270.381" fill="#85d6e4" r="228.57"/></g></g><path d="m467.376 244.829c-12.708-114.202-109.55-203.018-227.14-203.018-6.32 0-12.577.268-18.767.771-20.707 26.897-32.25 59.504-32.879 93.799-.671 36.6 11.368 72.568 33.898 101.279 20.646 26.31 49.258 45.583 81.162 54.815l20.738 26.717c5.685 7.324 14.264 11.525 23.536 11.525s17.851-4.201 23.536-11.525l20.738-26.718c28.902-8.367 55.154-25.014 75.178-47.645z" fill="#2ed1e2"/><path d="m240.675 302.281h225.92c-4.85 34.73-17.51 66.97-36.15 94.87h-79.92c-5.81 0-11.06-2.35-14.87-6.16-3.8-3.8-6.16-9.06-6.16-14.87 0-5.3-4.3-9.61-9.61-9.61h-79.21c-8.87 0-16.9-3.6-22.71-9.41s-9.4-13.83-9.4-22.7c0-17.74 14.37-32.12 32.11-32.12z" fill="#c3e87d"/><path d="m311.261 302.281 13.127 16.911c5.685 7.324 14.264 11.525 23.536 11.525s17.851-4.201 23.536-11.525l13.126-16.911z" fill="#b1e254"/><path d="m487.286 139.362c0-77.303-62.94-139.906-140.371-139.358-75.245.533-136.95 61.509-138.329 136.744-1.226 66.884 44.68 123.25 106.722 138.129l24.88 32.052c3.921 5.051 11.552 5.051 15.473 0l24.88-32.052c61.23-14.686 106.745-69.781 106.745-135.515z" fill="#e3817f"/><circle cx="347.924" cy="139.362" fill="#f7f2f0" r="94.306"/><g><path d="m346.262 195.391h-2.985c-14.876 0-26.979-12.103-26.979-26.979v-36.262c0-14.876 12.103-26.979 26.979-26.979h2.985c14.876 0 26.979 12.103 26.979 26.979 0 4.142-3.358 7.5-7.5 7.5s-7.5-3.358-7.5-7.5c0-6.605-5.374-11.979-11.979-11.979h-2.985c-6.605 0-11.979 5.374-11.979 11.979v36.262c0 6.605 5.374 11.979 11.979 11.979h2.985c6.605 0 11.979-5.374 11.979-11.979 0-4.142 3.358-7.5 7.5-7.5s7.5 3.358 7.5 7.5c0 14.877-12.103 26.979-26.979 26.979z" fill="#b2e4ee"/></g><g><path d="m376.8 92.685c-4.142 0-7.5-3.358-7.5-7.5v-5.492c0-4.142 3.358-7.5 7.5-7.5s7.5 3.358 7.5 7.5v5.492c0 4.142-3.358 7.5-7.5 7.5z" fill="#b2e4ee"/></g><path d="m104.699 318.719h-28.467c-9.078 0-16.436-7.359-16.436-16.436 0-9.078 7.359-16.436 16.436-16.436h28.468c9.078 0 16.436 7.359 16.436 16.436 0 9.078-7.359 16.436-16.437 16.436z" fill="#c3e87d"/><g id="XMLID_3_"><g fill="#c3e87d"><path d="m178.935 411.671c10.82 0 19.58 8.77 19.58 19.59 0 5.41-2.19 10.3-5.73 13.84-3.55 3.55-8.44 5.74-13.85 5.74h-78.99c-14.66-11.41-27.89-24.57-39.39-39.17z"/><path d="m130.395 159.371c11.3 0 20.46 9.16 20.46 20.46 0 5.65-2.29 10.76-5.99 14.47-3.71 3.7-8.82 5.99-14.47 5.99h-10.61c0 5.44-2.21 10.37-5.78 13.94-3.57 3.56-8.49 5.77-13.94 5.77h-82.83c4.84-21.52 12.72-41.88 23.15-60.63z"/></g></g></g></svg>